<svg width="188" height="187" viewBox="0 0 188 187" fill="none" xmlns="http://www.w3.org/2000/svg">
<path d="M13.6348 12.8457H174.541V173.752H13.6348V12.8457Z" fill="#F0D91F"/>
<mask id="mask0_201_128" style="mask-type:luminance" maskUnits="userSpaceOnUse" x="8" y="7" width="172" height="173">
<path d="M8.27295 7.48438H179.906V179.118H8.27295V7.48438Z" fill="white"/>
</mask>
<g mask="url(#mask0_201_128)">
<path d="M174.543 179.118H13.6365C10.6754 179.118 8.27295 176.715 8.27295 173.754V12.8479C8.27295 9.88679 10.6754 7.48438 13.6365 7.48438H174.543C177.503 7.48438 179.906 9.88679 179.906 12.8479V173.754C179.906 176.715 177.503 179.118 174.543 179.118ZM19 168.39H169.179V18.2114H19V168.39Z" fill="black"/>
</g>
<path d="M76.2095 164.815C65.2104 164.815 55.642 157.005 53.4393 146.249C53.1245 144.712 52.9675 143.146 52.9675 141.573C52.9675 138.611 55.3699 136.209 58.3311 136.209C61.2917 136.209 63.6946 138.611 63.6946 141.573C63.6946 142.423 63.7801 143.274 63.9516 144.104C65.1317 149.889 70.2878 154.088 76.2095 154.088C83.1102 154.088 88.7244 148.473 88.7244 141.573V91.5129C88.7244 88.5518 91.1269 86.1494 94.088 86.1494C97.0486 86.1494 99.4515 88.5518 99.4515 91.5129V141.573C99.4515 154.388 89.0247 164.815 76.2095 164.815Z" fill="black"/>
<path d="M138.784 164.815C124.982 164.815 113.754 155.188 113.754 143.36C113.754 140.399 116.157 137.997 119.118 137.997C122.078 137.997 124.481 140.399 124.481 143.36C124.481 149.174 131.032 154.088 138.784 154.088C146.536 154.088 153.087 149.174 153.087 143.36C153.087 138.097 147.751 133.806 137.225 130.616C122.092 126.018 113.754 117.851 113.754 107.604C113.754 95.7751 124.982 86.1494 138.784 86.1494C152.586 86.1494 163.814 95.7751 163.814 107.604C163.814 110.564 161.411 112.967 158.45 112.967C155.489 112.967 153.087 110.564 153.087 107.604C153.087 101.789 146.536 96.8765 138.784 96.8765C131.032 96.8765 124.481 101.789 124.481 107.604C124.481 114.504 134.421 118.552 140.343 120.347C159.745 126.233 163.814 136.109 163.814 143.36C163.814 155.188 152.586 164.815 138.784 164.815Z" fill="black"/>
</svg>
